<svg width="29" height="18" viewBox="0 0 29 18" fill="none" xmlns="http://www.w3.org/2000/svg">
<path fill-rule="evenodd" clip-rule="evenodd" d="M0.75 2C0.75 1.30964 1.30964 0.75 2 0.75H17C17.6904 0.75 18.25 1.30964 18.25 2C18.25 2.69036 17.6904 3.25 17 3.25H2C1.30964 3.25 0.75 2.69036 0.75 2Z" fill="black"/>
<path fill-rule="evenodd" clip-rule="evenodd" d="M10.75 16C10.75 15.3096 11.3096 14.75 12 14.75H27C27.6904 14.75 28.25 15.3096 28.25 16C28.25 16.6904 27.6904 17.25 27 17.25H12C11.3096 17.25 10.75 16.6904 10.75 16Z" fill="black"/>
<path fill-rule="evenodd" clip-rule="evenodd" d="M0.75 9C0.75 8.30964 1.30964 7.75 2 7.75H27C27.6904 7.75 28.25 8.30964 28.25 9C28.25 9.69036 27.6904 10.25 27 10.25H2C1.30964 10.25 0.75 9.69036 0.75 9Z" fill="black"/>
</svg>
